<?xml version="1.0" standalone="no"?>
<!DOCTYPE svg PUBLIC "-//W3C//DTD SVG 20010904//EN"
 "http://www.w3.org/TR/2001/REC-SVG-20010904/DTD/svg10.dtd">
<svg version="1.0" xmlns="http://www.w3.org/2000/svg"
 width="512.000000pt" height="512.000000pt" viewBox="0 0 512.000000 512.000000"
 preserveAspectRatio="xMidYMid meet">
<metadata>
Created by potrace 1.14, written by Peter Selinger 2001-2017
</metadata>
<g transform="translate(0.000000,512.000000) scale(0.100000,-0.100000)"
fill="#000000" stroke="none">
<path d="M2570 5039 c0 -6 -7 -9 -15 -6 -18 7 -30 -9 -13 -17 7 -3 0 -3 -16
-1 -24 4 -27 1 -23 -17 5 -16 3 -18 -6 -9 -14 14 -30 15 -22 1 3 -5 2 -10 -3
-10 -5 0 -12 -10 -15 -21 -4 -14 -11 -20 -21 -16 -10 4 -13 1 -9 -8 3 -8 -2
-18 -11 -21 -9 -3 -14 -10 -11 -14 3 -4 -3 -7 -13 -6 -9 0 -18 -6 -18 -14 -1
-8 -2 -19 -3 -24 0 -5 -7 -3 -15 3 -12 10 -14 8 -9 -11 3 -16 2 -19 -5 -10 -7
11 -11 10 -17 -5 -5 -10 -7 -22 -6 -27 1 -5 -5 -3 -14 4 -9 7 -15 9 -14 4 4
-22 -2 -44 -12 -44 -5 0 -7 6 -4 13 4 6 0 4 -9 -7 -8 -10 -20 -15 -27 -10 -8
5 -10 3 -5 -5 5 -7 0 -19 -10 -27 -11 -9 -13 -13 -4 -9 8 4 6 -1 -5 -10 -11
-9 -19 -21 -17 -27 2 -6 -5 -5 -14 3 -10 8 -15 10 -12 4 7 -12 -17 -37 -26
-27 -4 3 -4 -1 -1 -10 4 -9 1 -19 -6 -24 -8 -5 -10 -3 -4 6 6 9 4 11 -4 6 -7
-5 -10 -14 -7 -22 3 -8 2 -13 -2 -13 -22 4 -33 -3 -29 -15 4 -10 -1 -13 -18
-12 -19 3 -22 -1 -20 -21 2 -17 -1 -21 -10 -13 -9 8 -14 5 -18 -11 -3 -11 -10
-18 -16 -15 -5 4 -13 1 -17 -5 -4 -8 -3 -9 4 -5 7 4 12 3 12 -2 0 -13 -29 -24
-43 -16 -8 5 -7 2 0 -7 11 -11 8 -15 -15 -26 -15 -7 -18 -11 -8 -8 16 5 17 3
7 -9 -7 -8 -20 -12 -29 -9 -9 3 -14 3 -10 -1 9 -11 -15 -35 -27 -28 -5 3 -4
-2 3 -11 12 -14 11 -16 -8 -12 -18 4 -20 2 -9 -11 10 -12 9 -13 -6 -8 -14 6
-16 4 -10 -6 6 -9 4 -12 -7 -8 -11 5 -14 -1 -13 -23 1 -16 -3 -29 -9 -29 -6 0
-4 -5 4 -10 8 -5 11 -10 5 -10 -5 0 -3 -5 5 -10 8 -5 10 -10 4 -10 -7 0 -11
-13 -11 -28 1 -22 6 -28 19 -24 16 4 23 -11 20 -39 -1 -4 8 -5 18 -2 14 4 20
0 20 -12 0 -12 5 -15 20 -10 12 4 20 2 20 -5 0 -6 -4 -8 -10 -5 -17 10 -11
-12 7 -26 14 -12 16 -12 9 1 -4 8 -1 6 8 -5 8 -11 20 -25 25 -31 5 -7 7 -15 3
-19 -4 -4 0 -5 8 -3 8 2 14 -3 13 -9 -2 -8 7 -13 20 -13 18 0 19 -2 7 -10 -13
-8 -12 -10 3 -10 10 0 20 -7 23 -15 4 -8 10 -12 15 -9 8 4 14 -17 10 -38 0 -4
6 -5 15 -1 9 3 14 0 12 -8 -2 -7 3 -14 10 -15 6 -1 15 -2 18 -3 4 0 0 -8 -7
-17 -12 -15 -11 -16 8 -10 16 5 25 2 32 -12 6 -11 7 -23 3 -27 -4 -5 -2 -5 5
-1 7 4 10 14 7 24 -3 9 1 6 9 -8 9 -14 13 -28 11 -31 -2 -4 4 -13 13 -20 12
-10 14 -10 9 -1 -4 6 -2 12 3 12 6 0 11 -9 11 -20 0 -11 5 -21 10 -21 6 -1 16
-2 23 -3 6 -1 11 -8 10 -16 -2 -9 7 -20 20 -25 12 -6 26 -20 32 -32 5 -13 16
-23 23 -23 7 0 11 -4 8 -9 -7 -11 22 -23 37 -15 7 3 4 -1 -6 -9 -16 -13 -16
-15 -2 -21 9 -3 13 -2 10 4 -3 6 -1 10 4 10 6 0 11 -5 11 -11 0 -5 5 -7 10 -4
6 3 10 -1 10 -11 0 -13 3 -14 15 -4 12 10 15 10 15 0 0 -9 4 -9 17 1 11 10 14
10 9 2 -4 -8 -1 -13 9 -13 9 0 13 5 10 10 -10 16 1 11 16 -7 12 -14 12 -16 0
-8 -10 6 -12 4 -7 -4 6 -9 12 -8 26 4 17 15 19 15 27 0 9 -15 11 -15 24 1 12
15 12 16 0 9 -10 -5 -12 -4 -7 4 4 6 13 8 19 4 14 -9 47 -12 43 -4 -4 6 21 33
26 29 2 -1 12 4 23 11 19 11 18 12 -5 6 l-25 -6 25 15 c16 9 27 11 31 4 4 -5
9 -3 12 7 4 9 3 13 -2 10 -5 -3 -13 0 -17 6 -4 8 -3 9 4 5 6 -4 20 2 32 14 11
11 23 19 28 19 4 -1 12 7 17 18 6 11 16 18 23 15 6 -2 12 1 12 7 0 6 -5 11
-10 11 -6 0 -5 6 2 14 7 8 15 14 18 13 3 0 13 3 23 8 15 6 16 10 5 16 -9 6 -7
9 9 9 12 0 25 5 29 12 4 7 3 8 -4 4 -8 -4 -10 -2 -6 7 3 8 15 14 27 13 16 -1
21 4 19 18 -2 11 1 15 8 11 7 -4 10 0 8 11 -2 14 3 19 19 18 18 -1 21 2 13 16
-8 15 -6 17 11 13 13 -4 19 -1 17 7 -2 7 3 15 11 18 9 3 11 0 6 -8 -5 -9 -4
-11 4 -6 9 6 9 11 1 21 -8 10 -8 15 1 21 8 4 9 3 5 -4 -9 -15 5 -15 25 1 9 7
14 18 11 26 -3 9 0 11 8 6 10 -6 12 -4 7 8 -3 9 -1 19 5 23 7 4 8 3 4 -4 -4
-7 -2 -12 3 -12 6 0 11 7 11 16 0 8 4 13 9 9 6 -3 15 4 21 15 6 11 15 18 20
15 5 -3 12 0 16 6 4 8 3 9 -4 5 -7 -4 -12 -3 -12 1 0 5 10 13 23 18 12 6 21
18 20 28 0 12 4 16 13 13 8 -3 14 1 14 10 0 9 5 12 12 8 8 -5 9 -2 4 11 -5 15
-4 16 9 5 13 -11 14 -10 9 5 -6 14 -4 16 6 10 8 -5 11 -4 7 1 -3 6 -2 16 3 23
4 8 4 27 0 42 -6 19 -5 29 2 29 6 0 -1 9 -16 21 -14 11 -24 24 -21 29 3 4 -3
16 -13 27 -9 10 -14 14 -10 8 5 -7 2 -12 -7 -12 -7 0 -14 3 -13 6 2 20 -4 29
-23 34 -15 4 -20 11 -15 23 5 12 2 15 -10 10 -15 -6 -15 -4 -3 11 8 9 9 14 2
10 -6 -4 -18 -1 -26 7 -8 8 -18 12 -22 8 -4 -4 -6 -2 -5 3 6 26 -1 37 -20 32
-10 -3 -19 -2 -18 2 1 3 -4 17 -10 31 -6 14 -11 19 -11 13 -1 -7 -6 -13 -11
-13 -7 0 -7 8 1 23 6 12 8 19 4 15 -4 -4 -15 1 -24 10 -10 11 -12 12 -6 2 9
-13 8 -13 -7 -1 -10 7 -18 22 -18 31 0 11 -13 24 -30 32 -16 7 -30 19 -30 27
0 8 -6 11 -16 7 -14 -5 -15 -4 -5 8 9 11 9 16 0 22 -8 4 -9 3 -5 -4 4 -7 2
-12 -3 -12 -6 0 -11 5 -11 11 0 5 -6 7 -12 3 -9 -5 -9 -2 1 9 13 17 6 23 -21
18 -5 0 -8 4 -8 10 0 5 -6 7 -12 3 -9 -5 -9 -2 1 9 11 14 11 17 0 18 -8 1 -18
0 -24 -1 -5 -1 -7 2 -3 6 5 4 -2 12 -14 18 -12 6 -25 22 -29 36 -4 14 -7 21
-8 16 -1 -5 -12 3 -26 18 -14 15 -25 23 -26 19 0 -4 -4 3 -10 15 -5 13 -18 26
-29 29 -11 3 -20 10 -20 15 0 5 5 6 12 2 7 -4 8 -3 4 4 -4 6 -13 9 -21 5 -9
-3 -15 1 -15 11 0 10 -5 13 -17 9 -10 -4 -14 -2 -10 4 3 5 0 10 -8 10 -8 0
-12 -3 -10 -7 2 -4 -2 -7 -10 -7 -8 0 -12 4 -9 9 3 4 0 8 -5 8 -6 0 -11 -5
-11 -11z m660 -863 c0 -2 -7 -7 -16 -10 -8 -3 -12 -2 -9 4 6 10 25 14 25 6z
m-1080 -220 c0 -2 -8 -10 -17 -17 -16 -13 -17 -12 -4 4 13 16 21 21 21 13z
m653 -207 c-8 -8 -13 -7 -18 2 -5 8 -4 10 3 5 7 -4 12 -2 12 5 0 7 3 9 7 6 4
-4 2 -12 -4 -18z"/>
<path d="M2807 4869 c7 -7 15 -10 18 -7 3 3 -2 9 -12 12 -14 6 -15 5 -6 -5z"/>
<path d="M3095 4580 c3 -5 8 -10 11 -10 2 0 4 5 4 10 0 6 -5 10 -11 10 -5 0
-7 -4 -4 -10z"/>
<path d="M3208 4463 c7 -3 16 -2 19 1 4 3 -2 6 -13 5 -11 0 -14 -3 -6 -6z"/>
<path d="M1666 4165 c4 -10 0 -15 -14 -15 -12 0 -24 -5 -27 -10 -4 -6 -11 -7
-17 -4 -7 4 -8 2 -4 -5 6 -9 11 -9 24 1 12 10 14 10 8 0 -4 -7 -23 -19 -43
-27 -31 -13 -34 -17 -22 -32 13 -15 12 -15 -8 -5 -19 11 -21 10 -16 -11 3 -12
2 -19 -2 -14 -10 9 -45 -21 -45 -39 0 -16 -37 -37 -50 -29 -5 3 -7 -6 -4 -20
2 -14 0 -25 -6 -25 -5 0 -10 5 -10 10 0 6 -4 10 -9 10 -6 0 -8 -9 -6 -19 2
-14 -1 -18 -10 -15 -10 4 -13 0 -10 -15 3 -18 1 -20 -16 -10 -12 6 -23 8 -27
5 -3 -3 0 -6 6 -6 6 0 9 -7 5 -17 -5 -12 -3 -14 7 -8 9 5 11 4 6 -4 -6 -9 -12
-9 -24 1 -10 7 -14 8 -10 4 8 -9 -31 -43 -44 -38 -5 1 -8 -2 -8 -8 0 -5 5 -10
10 -10 6 0 10 -5 10 -11 0 -6 -7 -9 -15 -5 -10 3 -15 -1 -15 -12 0 -15 -2 -15
-10 -2 -9 13 -10 13 -11 0 -1 -8 -1 -18 0 -22 0 -4 -6 -5 -15 -1 -9 3 -14 0
-12 -8 2 -8 -3 -13 -9 -11 -7 1 -13 -2 -13 -8 0 -14 -48 -59 -55 -51 -4 3 -5
-1 -3 -9 2 -9 -4 -14 -14 -14 -10 1 -16 -2 -13 -6 3 -5 0 -12 -6 -15 -5 -4 -8
-13 -5 -21 4 -12 2 -12 -14 -4 -16 9 -19 8 -13 -7 5 -12 2 -15 -10 -10 -9 3
-16 3 -16 -1 3 -20 -2 -32 -13 -29 -7 1 -12 -4 -11 -10 2 -7 -2 -13 -8 -13 -5
0 -7 -6 -3 -12 5 -8 0 -7 -11 2 -17 14 -18 14 -5 -10 12 -23 12 -24 -4 -11 -9
8 -16 10 -15 5 3 -20 -2 -35 -10 -29 -6 3 -8 -8 -6 -25 2 -17 1 -28 -4 -26 -4
3 -7 -5 -6 -16 1 -12 10 -25 21 -28 10 -4 20 -12 20 -19 1 -6 2 -18 3 -27 0
-9 6 -12 13 -8 7 5 9 2 5 -9 -4 -11 -2 -14 9 -10 9 3 19 -6 30 -28 9 -20 13
-25 10 -11 -2 12 0 20 5 16 5 -3 9 -14 9 -25 0 -16 15 -24 41 -21 4 1 4 -8 1
-20 -4 -17 -2 -20 11 -15 9 3 21 -1 29 -11 11 -13 11 -15 -2 -7 -8 4 -2 -4 13
-18 15 -15 32 -27 38 -27 5 0 9 -5 9 -11 0 -5 -4 -7 -10 -4 -5 3 -7 0 -4 -9 3
-8 16 -17 30 -20 13 -4 23 -12 21 -18 -1 -7 4 -12 11 -13 15 0 33 -25 26 -36
-2 -4 7 -6 20 -5 16 2 23 -2 22 -13 0 -9 5 -15 13 -13 12 3 12 1 0 -14 -8 -10
-9 -15 -2 -11 6 4 14 1 16 -5 4 -10 8 -9 16 2 9 12 10 7 6 -18 -3 -20 -2 -31
4 -28 5 4 16 0 24 -8 8 -8 18 -12 21 -8 4 3 4 -2 0 -12 -6 -15 -4 -17 6 -11
10 6 12 4 6 -10 -5 -15 -4 -16 8 -6 12 10 16 8 21 -11 10 -29 35 -55 35 -36 0
10 3 10 9 -2 6 -8 7 -19 4 -25 -4 -5 -3 -7 2 -3 4 4 14 0 22 -10 9 -10 12 -11
7 -2 -4 8 -4 12 1 8 4 -4 15 -2 24 4 13 10 14 10 4 -2 -20 -22 -15 -32 8 -19
15 8 19 8 15 0 -4 -6 0 -11 8 -11 9 0 16 -5 16 -11 0 -5 5 -7 10 -4 6 4 7 11
4 17 -4 7 -2 8 5 4 6 -4 8 -12 5 -18 -4 -6 -1 -9 7 -6 8 3 22 1 33 -4 14 -8
17 -7 11 3 -6 9 -3 11 8 6 12 -4 17 -1 18 11 0 14 2 14 7 2 4 -8 13 -16 20
-18 8 -1 11 2 7 8 -6 9 16 15 39 11 5 -1 3 6 -5 15 -13 16 -12 16 8 6 16 -9
24 -9 29 0 5 7 2 9 -7 4 -8 -4 -6 -1 3 7 10 8 14 18 10 23 -4 4 1 2 11 -5 15
-12 17 -12 11 5 -4 10 -3 16 1 12 5 -5 13 2 20 15 6 12 19 21 28 21 13 -2 15
1 7 11 -8 9 -4 12 14 10 20 -3 24 1 21 17 -3 15 0 18 12 14 13 -5 13 -4 4 7
-9 12 -8 14 6 13 10 0 32 14 50 32 34 34 33 43 -1 15 -21 -18 -21 -18 -3 3 9
11 14 24 10 28 -4 4 4 3 19 -3 24 -9 26 -8 23 10 -3 15 0 19 10 15 8 -3 14 -2
14 2 -3 19 2 33 10 28 5 -3 11 3 14 14 3 11 11 19 18 18 7 -2 13 3 14 10 0 14
13 17 23 6 4 -4 1 -4 -7 1 -10 5 -12 4 -7 -4 11 -16 26 -3 19 16 -4 11 -3 14
5 9 8 -5 10 -2 6 9 -4 10 -2 15 7 13 7 -2 13 2 14 9 0 6 4 15 9 20 5 5 6 3 2
-4 -4 -7 -3 -13 1 -13 13 0 34 40 27 51 -4 8 0 8 13 0 18 -9 20 -7 19 12 -1
15 4 21 16 19 12 -2 16 3 13 19 -4 17 -2 19 11 8 12 -10 13 -9 8 6 -6 14 -4
16 7 10 12 -8 12 -6 0 8 -12 15 -11 17 2 17 11 0 14 5 10 17 -4 11 -3 14 5 9
7 -4 12 -2 12 3 0 6 -5 11 -11 11 -5 0 -7 5 -4 10 4 6 10 8 15 5 5 -3 12 0 16
6 4 8 3 9 -4 5 -13 -8 -13 -8 -17 45 -1 21 -6 43 -10 50 -3 8 0 6 8 -4 14 -17
15 -17 13 7 0 13 -3 23 -6 21 -3 -2 -11 3 -18 11 -7 8 -8 14 -2 14 6 0 6 7 -2
19 -7 11 -16 17 -20 15 -4 -3 -8 0 -8 6 0 6 -5 8 -12 4 -9 -5 -9 -2 1 9 12 15
11 17 -9 17 -17 0 -21 4 -17 20 3 11 2 18 -2 15 -4 -2 -22 9 -39 24 -17 16
-33 27 -36 24 -2 -2 -7 4 -10 14 -3 10 -16 23 -28 28 -13 6 -23 17 -23 25 -1
8 -7 14 -14 12 -8 -2 -11 3 -8 13 4 8 1 15 -6 15 -15 0 -57 44 -57 60 0 7 -7
10 -16 6 -14 -5 -15 -4 -4 9 11 13 7 17 -25 30 -30 13 -35 18 -25 30 15 18 -1
20 -19 3 -10 -11 -11 -9 -5 6 5 13 4 17 -4 12 -8 -5 -10 -1 -5 10 5 13 3 16
-10 11 -11 -4 -18 1 -22 14 -4 10 -11 17 -16 14 -5 -4 -9 -2 -9 4 0 5 6 12 13
14 6 3 2 6 -10 6 -13 1 -23 6 -23 13 0 6 -3 9 -6 5 -4 -3 -13 0 -20 8 -17 17
-18 29 -2 19 7 -4 8 -3 4 4 -4 7 -13 12 -21 12 -7 0 -15 7 -19 15 -3 8 -11 13
-18 11 -7 -1 -10 -1 -5 1 14 9 7 25 -9 19 -12 -5 -15 -2 -10 11 4 10 4 14 0
10 -4 -4 -17 1 -28 10 -20 17 -20 17 -7 0 12 -15 12 -17 -3 -11 -9 3 -16 9
-16 13 0 4 -7 8 -15 8 -10 0 -14 -6 -10 -16 4 -14 4 -14 -8 -1 -16 20 -38 24
-31 5z m-71 -75 c-3 -5 -12 -10 -18 -10 -7 0 -6 4 3 10 19 12 23 12 15 0z
m676 -447 c13 -16 12 -17 -3 -4 -10 7 -18 15 -18 17 0 8 8 3 21 -13z"/>
<path d="M3409 4153 c-1 -5 -1 -11 0 -15 0 -5 -5 -8 -13 -8 -8 0 -18 -5 -22
-12 -5 -7 -3 -8 6 -3 8 5 11 4 6 -3 -4 -6 -13 -9 -21 -6 -8 4 -18 -1 -21 -10
-3 -9 -10 -13 -15 -10 -8 5 -13 -9 -10 -28 0 -5 -5 -8 -13 -8 -7 0 -20 -8 -27
-17 -11 -15 -11 -16 1 -5 8 6 19 12 24 12 6 0 0 -7 -12 -16 -12 -8 -26 -12
-32 -9 -6 3 -7 -1 -4 -9 4 -11 0 -16 -12 -16 -16 0 -17 -2 -4 -10 12 -8 10
-10 -9 -10 -16 0 -21 -4 -18 -15 4 -8 1 -17 -5 -21 -7 -5 -8 -2 -4 7 4 8 0 5
-8 -5 -9 -11 -16 -24 -16 -29 0 -5 -7 -4 -15 3 -13 11 -14 10 -9 -5 5 -13 4
-16 -4 -11 -7 4 -12 2 -12 -4 0 -6 -4 -8 -10 -5 -6 3 -7 -1 -4 -10 5 -11 0
-18 -15 -22 -13 -3 -20 -11 -17 -19 5 -13 -26 -37 -49 -39 -5 -1 -9 -6 -8 -13
2 -7 -4 -9 -15 -5 -15 6 -15 5 -3 -11 13 -15 12 -17 -13 -12 -25 4 -26 3 -14
-11 8 -10 8 -14 1 -10 -7 4 -14 -1 -18 -13 -4 -12 -16 -20 -28 -21 -12 0 -16
-3 -10 -6 10 -3 10 -8 -1 -19 -8 -8 -20 -14 -26 -14 -6 0 -8 -5 -4 -12 5 -8 2
-9 -12 -4 -10 4 -15 4 -12 1 7 -8 -61 -71 -73 -68 -3 1 -6 -5 -5 -15 0 -9 -5
-16 -12 -14 -10 2 -10 -2 -1 -19 8 -16 8 -20 -1 -14 -7 4 -13 -1 -17 -14 -3
-11 -9 -19 -12 -16 -4 2 -8 -2 -8 -10 0 -8 5 -15 11 -15 6 0 4 -4 -4 -10 -8
-5 -11 -12 -8 -16 4 -4 2 -16 -4 -27 -8 -17 -8 -19 5 -14 11 4 14 2 10 -8 -3
-8 -9 -13 -14 -10 -4 3 -6 -5 -3 -17 3 -13 7 -31 8 -41 1 -10 9 -23 17 -28 8
-5 10 -9 4 -9 -5 -1 1 -6 14 -11 19 -7 21 -12 11 -24 -10 -12 -8 -13 10 -10
19 4 20 2 8 -12 -11 -14 -10 -16 7 -11 15 4 21 0 21 -13 0 -11 -5 -19 -10 -19
-5 0 -6 -3 -3 -6 4 -4 14 -1 23 7 16 13 17 12 12 -9 -5 -19 -4 -21 8 -11 11 9
14 9 14 0 0 -7 5 -9 13 -5 7 5 6 0 -3 -11 -14 -17 -13 -18 8 -13 19 5 21 4 11
-8 -9 -11 -9 -14 0 -14 7 0 9 -4 6 -10 -3 -6 1 -7 9 -4 9 4 16 1 16 -6 0 -7 7
-10 16 -6 8 3 12 2 9 -4 -3 -6 -1 -10 4 -10 6 0 11 -7 11 -15 0 -8 5 -15 10
-15 6 0 10 -7 10 -15 0 -8 5 -15 11 -15 5 0 7 6 3 13 -5 8 -2 7 9 -2 13 -11
15 -17 6 -28 -10 -11 -8 -12 6 -6 14 5 17 3 13 -9 -4 -8 -1 -15 8 -15 7 0 11
5 8 11 -3 6 2 2 10 -8 9 -11 16 -24 16 -29 0 -4 4 -5 10 -2 6 3 7 -1 4 -9 -4
-11 0 -16 11 -16 12 0 15 -5 11 -16 -5 -13 -4 -14 7 -6 19 16 30 3 14 -16 -9
-13 -9 -14 1 -8 7 4 12 2 12 -6 0 -9 3 -9 10 2 8 12 10 11 10 -7 0 -12 5 -25
11 -28 6 -4 8 -14 4 -22 -4 -13 -3 -14 9 -4 19 16 36 6 36 -20 0 -11 5 -17 10
-14 6 3 10 0 10 -8 0 -11 31 -33 60 -42 3 -1 13 -5 22 -9 9 -4 22 -4 29 0 9 5
10 1 7 -14 -4 -12 -2 -20 3 -16 5 3 9 12 9 20 0 12 2 12 14 2 8 -7 11 -17 8
-22 -3 -5 0 -6 7 -2 6 4 9 11 6 16 -3 5 0 12 6 16 7 4 9 3 6 -3 -4 -6 2 -13
13 -16 11 -3 19 -2 18 2 -2 20 4 23 15 6 11 -14 16 -15 22 -5 6 9 4 11 -6 6
-8 -4 -5 0 5 8 13 11 23 12 31 6 8 -7 18 -3 31 11 10 12 18 24 17 28 -1 3 1 8
4 11 4 3 3 -1 -1 -7 -10 -18 5 -16 18 3 6 8 20 17 31 18 11 2 19 9 18 15 -2 6
2 11 8 11 5 0 7 5 4 10 -3 6 1 13 10 16 9 4 14 13 10 22 -5 13 -3 13 12 1 11
-9 14 -10 9 -1 -4 6 -3 12 1 12 5 0 18 7 29 16 10 8 13 13 7 9 -7 -3 -13 -1
-13 6 0 6 8 9 19 6 14 -3 18 -1 14 10 -4 9 2 16 16 20 11 3 21 12 21 20 0 8 5
11 10 8 6 -3 10 1 10 10 0 10 6 15 13 12 9 -3 13 3 13 17 -1 15 4 20 17 18 11
-2 17 4 17 16 0 27 11 34 28 19 13 -9 14 -9 8 1 -4 6 -2 12 3 12 6 0 11 7 11
15 0 8 5 16 10 16 6 1 15 2 20 3 6 0 10 5 9 10 0 5 3 12 8 15 5 3 14 17 21 31
l12 25 -5 -25 c-4 -24 -4 -23 7 3 11 24 26 32 51 28 5 -1 6 3 2 9 -3 6 -11 8
-16 5 -5 -4 -9 -4 -9 0 0 6 52 29 62 27 4 -1 4 6 1 15 -5 12 -3 14 8 8 12 -8
12 -6 0 8 -12 15 -12 17 3 11 13 -5 15 -2 9 12 -6 17 -5 17 10 5 15 -12 17
-12 11 3 -4 11 -1 16 10 16 9 0 13 6 10 14 -3 8 0 17 7 22 7 4 10 3 5 -4 -3
-6 -1 -14 6 -18 7 -4 10 -4 6 1 -4 4 -2 15 5 23 9 13 9 14 0 8 -8 -4 -13 -1
-13 9 0 9 4 14 8 11 5 -3 9 1 9 9 0 8 -5 15 -11 15 -6 0 -4 5 4 10 13 9 13 10
0 10 -13 0 -13 1 0 10 12 7 12 10 1 10 -7 0 -11 6 -7 15 3 8 2 14 -2 14 -19
-3 -25 2 -12 11 11 7 9 11 -13 19 -15 6 -27 15 -27 21 0 6 -6 8 -12 5 -7 -4
-4 1 7 10 19 16 19 16 -8 11 -16 -3 -25 -1 -22 5 6 8 -8 13 -28 10 -5 -1 -6 3
-2 9 3 6 11 7 17 4 7 -5 8 -2 4 5 -5 7 -15 10 -23 7 -10 -4 -13 -2 -10 8 7 18
-12 36 -31 29 -10 -4 -13 -2 -8 5 4 7 2 12 -4 12 -6 0 -8 5 -4 12 5 8 2 9 -10
5 -9 -4 -15 -3 -12 1 6 10 -29 42 -45 42 -5 0 -8 3 -6 8 7 10 -19 32 -29 24
-4 -4 -5 -2 -1 3 3 6 -3 22 -14 35 -12 15 -17 18 -13 8 3 -10 1 -18 -5 -18 -6
0 -10 3 -10 8 4 22 -2 42 -11 37 -5 -3 -10 1 -10 10 0 12 -6 15 -22 10 -19 -6
-21 -5 -11 6 10 10 9 16 -4 31 -9 10 -22 18 -30 18 -8 0 -12 4 -9 9 3 5 -4 11
-15 14 -15 4 -20 11 -15 23 5 14 4 15 -8 5 -12 -10 -14 -8 -9 11 5 19 3 21 -8
11 -16 -16 -29 -17 -29 -2 0 5 5 7 10 4 6 -3 10 -2 10 4 0 6 -11 13 -25 17
-14 3 -25 10 -25 15 0 5 6 7 13 5 6 -1 9 -1 4 1 -4 3 -5 9 -2 13 3 5 -3 7 -14
5 -19 -3 -35 8 -43 30 -1 6 -9 9 -16 9 -10 -2 -10 1 0 14 10 12 10 14 1 8 -8
-4 -13 -2 -13 4 0 6 -4 8 -10 5 -13 -8 -13 8 0 23 6 6 7 10 3 7 -4 -3 -20 7
-36 22 -17 16 -27 23 -23 16 3 -6 2 -14 -4 -18 -5 -3 -10 1 -10 11 0 14 -2 15
-17 3 -11 -10 -14 -10 -9 -1 4 6 4 12 -1 13 -4 0 -16 2 -26 4 -9 2 -15 0 -12
-5 3 -4 -2 -10 -10 -14 -8 -3 -17 0 -21 6 -5 7 -2 8 6 3 9 -5 11 -4 6 3 -8 14
-15 15 -17 5z m145 -42 c13 -14 14 -21 5 -27 -8 -4 -10 -3 -5 5 4 6 0 14 -8
17 -9 3 -16 10 -16 15 0 13 5 11 24 -10z m251 -261 c3 -5 1 -10 -4 -10 -6 0
-11 5 -11 10 0 6 2 10 4 10 3 0 8 -4 11 -10z m249 -248 c3 -5 -1 -9 -9 -9 -8
0 -12 4 -9 9 3 4 7 8 9 8 2 0 6 -4 9 -8z m-1194 -5 c0 -2 -10 -12 -22 -23
l-23 -19 19 23 c18 21 26 27 26 19z m1231 -370 c-10 -9 -11 -8 -5 6 3 10 9 15
12 12 3 -3 0 -11 -7 -18z m-437 -433 c3 -8 2 -12 -4 -9 -6 3 -10 10 -10 16 0
14 7 11 14 -7z m-328 -65 c3 -6 -5 -3 -20 6 -14 10 -26 19 -26 22 0 7 39 -17
46 -28z m239 2 c3 -5 2 -12 -3 -15 -5 -3 -9 1 -9 9 0 17 3 19 12 6z"/>
<path d="M3635 4020 c3 -5 8 -10 11 -10 2 0 4 5 4 10 0 6 -5 10 -11 10 -5 0
-7 -4 -4 -10z"/>
<path d="M3060 3820 c-8 -5 -10 -10 -5 -10 6 0 17 5 25 10 8 5 11 10 5 10 -5
0 -17 -5 -25 -10z"/>
<path d="M2165 3761 c-6 -11 13 -26 22 -17 4 3 1 6 -6 6 -7 0 -9 5 -6 10 3 6
4 10 1 10 -3 0 -7 -4 -11 -9z"/>
<path d="M2310 3731 c0 -5 7 -12 16 -15 14 -5 15 -4 4 9 -14 17 -20 19 -20 6z"/>
<path d="M2380 3419 c0 -5 5 -7 10 -4 6 3 10 8 10 11 0 2 -4 4 -10 4 -5 0 -10
-5 -10 -11z"/>
<path d="M975 3370 c-3 -6 1 -7 9 -4 18 7 21 14 7 14 -6 0 -13 -4 -16 -10z"/>
<path d="M844 3336 c-12 -9 -23 -11 -30 -5 -8 6 -17 4 -27 -6 -12 -11 -17 -12
-20 -2 -3 7 -6 4 -6 -6 -1 -10 -5 -15 -11 -12 -5 3 -10 1 -10 -5 0 -6 -5 -8
-12 -4 -9 5 -8 2 1 -9 12 -15 12 -17 -4 -10 -14 5 -17 3 -12 -10 4 -12 1 -15
-14 -12 -16 3 -18 1 -9 -16 13 -23 7 -25 -14 -3 -15 14 -16 13 -14 -8 2 -14
-2 -22 -9 -20 -12 2 -17 -10 -14 -30 0 -4 -9 -5 -20 -3 -16 3 -18 1 -10 -9 9
-10 6 -13 -14 -11 -14 2 -23 -1 -19 -6 3 -5 11 -6 17 -3 7 4 3 -2 -8 -13 -11
-12 -24 -20 -29 -19 -5 0 -15 -9 -21 -21 -7 -13 -15 -20 -18 -16 -7 6 -10 -12
-4 -21 5 -8 -36 -45 -44 -40 -5 3 -9 0 -9 -6 0 -6 -4 -9 -9 -5 -16 9 -25 -16
-10 -27 13 -9 7 -8 -31 5 -3 1 -5 -2 -5 -8 0 -5 5 -9 10 -7 6 2 -3 -10 -19
-27 -17 -17 -34 -31 -39 -31 -5 0 1 9 14 20 13 10 21 19 17 20 -4 0 -17 -8
-28 -17 -15 -13 -17 -20 -7 -32 6 -9 8 -13 3 -9 -5 4 -15 0 -23 -8 -9 -8 -21
-13 -28 -10 -9 3 -11 -2 -7 -16 3 -14 1 -19 -6 -14 -7 4 -12 1 -12 -10 0 -14
-2 -15 -17 -3 -10 9 -14 9 -10 2 10 -16 -30 -56 -45 -47 -7 4 -8 3 -4 -5 4 -6
0 -14 -9 -17 -13 -5 -13 -9 -3 -22 10 -12 10 -14 1 -8 -7 4 -13 2 -13 -3 0 -6
-6 -10 -12 -8 -7 1 -12 -6 -12 -15 1 -11 -5 -15 -17 -13 -12 3 -16 -1 -12 -11
6 -17 -13 -19 -21 -1 -3 6 -3 1 0 -12 4 -16 3 -21 -5 -17 -7 5 -10 2 -9 -6 2
-7 -3 -12 -10 -10 -8 1 -11 -2 -7 -7 3 -6 13 -8 23 -5 9 3 6 -1 -7 -9 -18 -11
-20 -16 -10 -20 12 -5 12 -6 0 -6 -11 -1 -10 -6 4 -21 10 -11 15 -20 10 -20
-4 0 -1 -8 6 -17 11 -15 11 -16 -1 -5 -22 19 -32 14 -12 -6 9 -10 23 -16 31
-14 9 3 12 1 8 -5 -4 -6 -1 -18 7 -26 8 -8 12 -18 8 -22 -4 -5 3 -6 15 -3 16
4 20 2 16 -8 -3 -9 2 -14 13 -14 16 0 17 -2 4 -10 -12 -8 -11 -10 6 -10 15 0
24 -8 28 -25 4 -17 11 -22 22 -18 8 3 14 2 13 -3 -3 -20 2 -34 12 -34 15 0 39
-26 31 -34 -3 -4 1 -4 11 0 12 4 17 1 17 -11 0 -10 -5 -13 -12 -9 -6 4 -8 3
-4 -4 3 -6 15 -9 25 -7 15 3 19 -1 16 -18 -4 -22 -4 -22 12 -2 13 16 15 17 10
3 -4 -10 -2 -18 3 -18 6 0 10 -7 10 -16 0 -8 5 -12 10 -9 6 3 10 -4 10 -17 0
-18 2 -20 10 -8 8 13 10 12 11 -5 1 -11 1 -23 1 -26 -1 -3 6 -6 13 -6 12 0 12
3 2 16 -11 14 -10 14 6 2 9 -7 17 -22 17 -32 0 -11 5 -19 11 -19 5 0 7 5 3 12
-4 7 -3 8 4 4 6 -4 9 -13 6 -20 -3 -8 0 -17 7 -22 7 -4 10 -3 6 3 -3 5 0 10 8
10 8 0 12 -4 10 -8 -3 -3 2 -12 10 -19 8 -7 15 -19 15 -26 0 -8 6 -14 14 -14
7 0 19 -7 26 -15 7 -8 16 -13 20 -10 5 3 6 -3 3 -14 -3 -10 1 -22 8 -26 8 -6
10 -4 4 6 -5 8 0 7 12 -4 11 -9 23 -14 28 -10 4 5 5 2 1 -5 -8 -14 16 -42 36
-42 10 0 9 -3 -2 -10 -12 -7 -8 -10 15 -10 17 0 25 -4 19 -8 -9 -5 -9 -10 1
-19 7 -7 17 -8 26 -2 19 12 32 11 24 -2 -9 -13 27 -8 37 6 5 6 8 5 8 -2 0 -7
5 -13 11 -13 5 0 7 5 3 12 -5 8 -2 9 9 5 12 -4 17 -1 17 9 0 10 6 14 14 11 10
-4 14 0 11 13 -3 13 1 17 11 13 7 -3 11 -10 7 -16 -3 -6 -1 -7 6 -3 9 6 9 11
0 22 -10 12 -9 13 5 8 12 -5 15 -2 9 12 -4 12 -3 15 5 10 7 -4 12 -1 12 9 0
11 5 15 15 11 8 -3 14 -2 14 2 -1 4 -1 15 0 25 1 15 4 16 22 7 19 -11 20 -10
9 10 -11 20 -10 21 10 10 16 -8 20 -9 16 -1 -4 6 -1 14 8 17 9 3 12 12 9 21
-4 11 -2 14 5 9 7 -4 12 -1 12 8 0 19 16 21 24 4 4 -9 5 -8 5 2 -2 29 1 40 12
40 5 0 7 -6 3 -12 -6 -10 -3 -9 8 0 10 8 14 20 11 29 -4 11 -2 14 5 9 7 -4 12
-2 12 4 0 6 5 8 13 4 9 -6 9 -4 -1 8 -12 14 -10 16 10 11 15 -3 19 -2 10 4
-10 7 -7 14 10 29 22 18 22 18 8 0 -13 -17 -13 -19 0 -14 8 3 15 14 14 25 0
12 6 20 15 19 9 -1 15 6 15 16 -1 10 1 16 5 13 11 -6 62 30 54 38 -3 4 1 7 10
7 9 0 17 5 17 11 0 5 -5 7 -12 3 -7 -4 -8 -3 -4 5 4 6 11 9 16 6 5 -3 15 1 23
9 8 8 18 12 23 8 5 -4 2 1 -5 10 -11 15 -10 17 8 13 11 -2 24 1 27 7 4 7 2 8
-4 4 -7 -4 -12 -2 -12 3 0 6 5 11 11 11 5 0 7 6 3 13 -5 8 -2 7 9 -2 15 -12
17 -12 11 4 -6 14 -4 16 6 10 9 -6 12 -4 8 6 -3 8 1 20 9 28 13 12 14 11 8
-10 -5 -18 -4 -21 4 -9 6 8 11 23 11 33 0 9 5 17 11 17 7 0 9 10 7 25 -4 19
-2 23 7 15 8 -7 11 -5 10 8 0 9 -4 22 -8 29 -9 14 2 45 14 37 5 -3 6 2 3 10
-3 9 -11 13 -18 9 -6 -3 -6 -1 2 8 15 16 16 33 1 23 -7 -4 -9 0 -5 14 5 14 0
27 -16 43 -17 17 -19 20 -5 16 26 -9 21 0 -10 18 -16 9 -20 14 -10 11 11 -3
15 -2 12 4 -3 6 -12 10 -20 10 -14 0 -28 27 -20 40 3 4 -3 6 -14 3 -10 -3 -22
1 -26 8 -5 8 -4 10 3 5 8 -5 10 -1 6 9 -4 9 -13 14 -20 11 -9 -3 -11 0 -7 12
6 15 5 15 -10 3 -15 -12 -17 -12 -11 4 6 14 4 16 -7 10 -12 -7 -12 -6 -1 7 12
15 10 16 -20 13 -21 -3 -28 -1 -19 4 16 10 5 35 -13 28 -7 -3 -13 1 -14 9 -1
8 -3 21 -4 29 -1 9 -7 14 -16 10 -10 -3 -12 0 -9 10 4 8 1 17 -5 21 -7 4 -8 3
-4 -4 4 -7 3 -12 -2 -12 -17 0 -22 13 -9 28 11 13 9 14 -13 2 -22 -12 -24 -12
-12 2 10 13 9 18 -5 29 -11 9 -14 10 -9 2 4 -7 3 -13 -2 -13 -5 0 -12 9 -15
20 -3 11 -17 24 -31 30 -14 5 -26 15 -26 22 0 7 -13 19 -30 26 -16 8 -29 17
-29 20 3 21 -2 32 -13 26 -8 -5 -9 -2 -5 10 4 9 3 15 -2 12 -5 -3 -14 1 -21 9
-6 7 -19 11 -28 8 -15 -4 -15 -3 -2 7 11 9 12 13 2 17 -6 2 -9 10 -5 16 4 6 0
8 -10 4 -16 -6 -22 4 -18 27 1 5 -6 6 -15 2 -11 -4 -15 -2 -11 8 8 20 -4 28
-21 13 -13 -10 -14 -8 -9 13 4 14 4 19 1 13 -3 -7 -12 -13 -20 -13 -9 0 -12 5
-9 10 9 14 2 13 -21 -4z m-287 -241 c0 -8 -4 -12 -9 -9 -5 3 -6 10 -3 15 9 13
12 11 12 -6z m-327 -329 c0 -2 -7 -7 -16 -10 -8 -3 -12 -2 -9 4 6 10 25 14 25
6z"/>
<path d="M4349 3253 c-13 -16 -12 -17 4 -4 16 13 21 21 13 21 -2 0 -10 -8 -17
-17z"/>
<path d="M4319 3253 c-1 -5 -1 -12 0 -17 1 -5 -5 -6 -13 -3 -8 3 -16 2 -18 -3
-2 -5 -13 -11 -26 -13 -12 -2 -28 -10 -35 -17 -10 -12 -9 -12 6 -1 9 7 17 9
17 3 0 -15 -28 -35 -39 -27 -7 3 -8 0 -5 -9 6 -16 -10 -23 -19 -8 -2 4 -2 1
-1 -5 2 -7 -2 -13 -8 -13 -7 0 -7 -4 1 -14 10 -12 8 -13 -10 -9 -18 5 -21 3
-15 -12 6 -16 4 -16 -11 -4 -11 9 -14 10 -9 2 4 -8 1 -13 -9 -13 -9 0 -14 -4
-11 -9 3 -5 -1 -12 -10 -15 -9 -3 -12 -11 -8 -18 6 -10 5 -10 -7 -1 -13 11
-15 9 -15 -9 1 -15 -7 -24 -24 -28 -14 -4 -24 -12 -22 -19 3 -16 -16 -41 -31
-41 -6 0 -2 7 9 16 18 15 18 15 -3 5 -14 -7 -21 -18 -18 -31 2 -11 0 -18 -6
-15 -5 4 -14 3 -20 -1 -8 -5 -8 -9 1 -14 8 -5 1 -11 -19 -18 -17 -6 -31 -16
-31 -22 0 -6 -4 -9 -9 -6 -5 4 -7 -4 -5 -16 2 -13 2 -18 -2 -11 -4 10 -8 10
-19 0 -7 -7 -10 -16 -7 -21 3 -5 -2 -7 -11 -3 -9 3 -16 3 -16 -1 4 -22 -3 -31
-18 -25 -11 4 -14 3 -9 -5 4 -7 1 -12 -7 -12 -8 0 -21 -8 -28 -17 -11 -15 -11
-16 1 -5 22 19 32 14 13 -6 -10 -10 -24 -17 -30 -14 -7 2 -13 -1 -13 -7 0 -6
5 -11 12 -11 6 0 8 -3 5 -6 -4 -4 -13 -2 -21 5 -11 9 -14 8 -12 -6 0 -9 -10
-22 -22 -29 -35 -17 -41 -26 -44 -61 -1 -17 -5 -30 -9 -27 -10 6 -20 -26 -13
-38 4 -6 0 -14 -7 -19 -12 -7 -11 -9 1 -9 9 -1 5 -6 -10 -16 -19 -11 -20 -14
-5 -10 17 5 20 1 20 -27 0 -17 -4 -35 -10 -39 -6 -5 -5 -8 2 -8 7 0 17 -10 23
-22 11 -22 10 -22 -4 -4 -9 11 -16 15 -16 9 0 -7 7 -19 16 -28 9 -8 14 -22 11
-29 -3 -8 1 -13 11 -12 12 1 16 -6 15 -21 -2 -13 2 -23 8 -23 5 0 7 5 4 10 -3
6 1 10 9 10 10 0 13 -7 11 -21 -4 -18 -2 -19 11 -8 8 7 14 8 13 3 -4 -21 2
-35 11 -29 6 3 10 -1 10 -10 0 -10 5 -13 12 -9 8 5 9 2 4 -11 -6 -16 -4 -16
11 -4 11 9 14 10 9 2 -4 -7 -3 -13 3 -13 5 0 13 -9 16 -20 4 -12 11 -17 18
-13 7 4 6 -1 -2 -11 -8 -9 -10 -16 -5 -15 20 4 35 -2 29 -11 -3 -6 1 -7 9 -4
16 6 23 -10 9 -19 -5 -2 -2 -2 5 -1 7 2 15 -3 18 -11 4 -8 12 -15 19 -15 7 0
18 -14 24 -31 9 -27 13 -30 27 -18 13 11 15 11 14 -2 -1 -7 -2 -21 -1 -29 1
-13 2 -13 11 0 8 13 10 13 10 -1 0 -9 7 -22 15 -29 8 -7 12 -17 8 -24 -4 -6 2
-4 12 4 10 8 17 11 14 5 -3 -5 5 -20 18 -32 13 -12 23 -17 23 -11 0 6 3 8 6 5
4 -4 1 -14 -7 -24 -12 -15 -12 -16 4 -10 9 3 17 2 17 -4 0 -6 4 -7 10 -4 5 3
7 0 4 -8 -3 -8 3 -20 13 -28 17 -13 17 -13 3 5 -14 18 -14 18 7 6 12 -8 19
-18 17 -22 -3 -4 0 -8 6 -8 6 0 8 -4 5 -10 -6 -9 16 -15 39 -11 5 1 3 -6 -5
-15 -8 -10 -9 -15 -3 -11 6 3 17 -3 24 -14 14 -18 37 -28 26 -11 -6 11 34 9
52 -1 7 -5 12 -3 12 3 0 6 5 8 10 5 6 -3 10 -1 10 5 0 6 5 8 10 5 6 -4 7 -11
4 -17 -4 -7 -2 -8 4 -4 6 4 8 14 5 24 -3 9 -3 14 2 10 4 -4 14 0 22 10 9 10
12 11 7 2 -4 -8 5 -4 20 10 16 14 32 36 37 49 6 16 15 22 28 18 10 -2 18 1 18
9 0 7 -4 11 -9 8 -4 -3 -8 -1 -8 5 0 5 10 11 23 13 12 2 22 9 22 16 0 16 26
33 40 24 5 -3 4 2 -3 11 -12 14 -11 16 7 12 13 -2 18 1 15 10 -3 7 0 16 7 21
8 5 10 3 5 -7 -4 -8 -1 -5 8 5 8 10 13 22 11 26 -3 4 3 7 12 6 10 0 18 4 18
11 0 17 15 29 16 12 0 -8 5 -3 10 11 8 20 12 22 20 10 7 -11 8 -8 5 12 -3 20
-1 25 10 21 8 -3 14 0 14 7 0 7 7 10 15 6 13 -5 14 -2 4 17 -12 21 -11 21 6 7
11 -9 16 -10 11 -2 -4 6 -2 12 3 12 6 0 10 5 8 11 -1 6 4 14 12 17 9 3 11 0 6
-9 -5 -8 1 -6 13 4 12 11 18 25 15 35 -5 11 -3 13 7 7 10 -6 12 -4 6 10 -6 16
-4 16 11 4 10 -9 14 -9 10 -2 -10 16 30 56 49 49 9 -3 12 -1 9 5 -8 12 14 41
25 34 4 -3 14 3 21 12 12 14 12 16 -1 8 -13 -8 -13 -6 -1 8 7 9 18 14 23 11 5
-3 8 2 6 12 -2 11 2 18 10 16 7 -1 15 5 18 13 3 8 11 12 18 8 6 -4 5 1 -3 10
-12 16 -12 17 5 10 17 -6 17 -5 5 10 -12 16 -12 17 5 10 17 -6 18 -5 4 12 -14
17 -14 17 6 7 19 -10 20 -8 16 19 -2 16 -9 32 -14 35 -5 3 -4 13 4 22 7 10 8
14 4 10 -12 -10 -39 29 -30 43 4 7 -2 7 -17 -1 -19 -10 -22 -10 -12 0 9 10 6
18 -13 35 -13 12 -24 27 -24 33 0 7 -7 9 -17 5 -10 -4 -14 -2 -10 4 8 12 -20
26 -34 17 -5 -3 -9 0 -9 5 0 6 8 11 18 12 11 0 5 6 -15 16 -18 9 -33 21 -33
26 0 6 5 6 13 1 7 -5 4 -1 -6 8 -11 10 -24 15 -30 11 -5 -3 -7 -2 -4 4 3 5 -3
16 -13 23 -16 11 -17 17 -7 29 10 12 9 13 -12 2 -13 -7 -21 -8 -17 -3 3 6 1
14 -5 17 -5 4 -8 13 -5 21 3 9 0 11 -11 7 -10 -4 -14 -2 -9 5 3 6 2 13 -3 16
-5 4 -13 1 -17 -5 -5 -8 -3 -9 6 -4 9 5 11 4 6 -4 -12 -18 -24 -4 -20 24 2 20
-1 24 -10 16 -16 -13 -27 -4 -19 15 3 9 0 14 -8 12 -8 -2 -14 5 -14 14 0 9 -4
20 -9 25 -5 4 -6 3 -2 -4 4 -8 1 -13 -9 -13 -9 0 -14 4 -10 9 6 11 -29 34 -38
25 -3 -3 -4 3 -3 13 0 11 -5 17 -13 15 -12 -3 -12 0 -2 12 10 12 9 14 -11 8
-21 -5 -22 -4 -8 13 9 11 10 16 3 11 -7 -4 -13 -2 -13 3 0 6 -3 10 -7 10 -19
-3 -33 2 -33 12 0 5 6 7 13 3 8 -5 8 -3 -2 9 -7 9 -17 14 -22 11 -5 -3 -9 2
-9 10 0 8 -9 18 -20 21 -11 3 -20 14 -20 23 0 15 -2 15 -10 2 -8 -12 -10 -10
-10 10 0 20 -2 22 -10 10 -7 -11 -10 -11 -10 -2 0 7 -5 10 -10 7 -6 -4 -10 -3
-9 2 3 19 -2 33 -12 33 -5 0 -7 -6 -4 -12 4 -7 -1 -4 -9 6 -9 11 -16 15 -16 9
0 -6 -8 -10 -17 -8 -10 2 -22 4 -26 4 -5 1 -5 6 -2 11 3 6 4 10 1 10 -3 0 -7
-3 -7 -7z m-627 -615 c-7 -7 -12 -8 -12 -2 0 6 3 14 7 17 3 4 9 5 12 2 2 -3
-1 -11 -7 -17z m1128 -432 c0 -3 -4 -8 -10 -11 -5 -3 -10 -1 -10 4 0 6 5 11
10 11 6 0 10 -2 10 -4z m-380 -372 c0 -8 -19 -13 -24 -6 -3 5 1 9 9 9 8 0 15
-2 15 -3z"/>
<path d="M1070 3161 c0 -6 4 -13 10 -16 6 -3 7 1 4 9 -7 18 -14 21 -14 7z"/>
<path d="M2516 3125 c-3 -8 -13 -15 -21 -15 -10 0 -13 -5 -9 -12 4 -7 3 -8 -5
-4 -6 4 -9 11 -6 16 3 4 -2 10 -10 14 -8 3 -14 2 -14 -2 3 -20 -2 -32 -11 -27
-6 4 -7 11 -4 17 4 7 2 8 -5 4 -6 -4 -9 -11 -7 -15 3 -4 1 -13 -5 -21 -7 -12
-9 -12 -9 3 0 10 -5 15 -10 12 -6 -4 -7 -11 -4 -17 4 -6 -3 -5 -16 2 -18 9
-21 9 -15 0 5 -8 3 -11 -6 -8 -8 3 -20 -2 -27 -11 -8 -10 -11 -10 -6 -2 5 9 3
12 -4 7 -7 -4 -12 -15 -12 -24 0 -15 -2 -15 -10 -2 -8 13 -10 13 -10 -2 0 -12
-5 -15 -17 -11 -10 4 -14 2 -10 -4 9 -14 -19 -37 -34 -27 -7 4 -9 3 -6 -2 8
-14 -7 -35 -29 -38 -10 -2 -18 -9 -17 -15 2 -6 -2 -11 -8 -11 -5 0 -7 -4 -4
-10 3 -5 -1 -10 -9 -10 -17 0 -39 -34 -28 -44 3 -4 -1 -4 -10 -1 -9 4 -19 1
-24 -6 -5 -8 -3 -10 7 -5 8 5 8 2 -2 -6 -9 -7 -14 -18 -12 -24 2 -6 -4 -17
-14 -25 -16 -13 -17 -12 -5 3 11 13 11 18 0 24 -7 4 -10 3 -5 -1 4 -5 -1 -17
-10 -28 -10 -11 -13 -17 -6 -14 6 4 14 3 17 -2 3 -5 -3 -11 -14 -14 -13 -3
-18 -11 -15 -26 2 -12 0 -21 -5 -21 -5 0 -6 -7 -3 -17 4 -9 2 -14 -3 -10 -6 3
-9 -7 -8 -24 1 -16 -2 -27 -6 -24 -4 3 -11 -2 -14 -11 -3 -8 -2 -12 4 -9 12 7
14 -8 3 -19 -5 -4 -9 -26 -9 -48 -1 -26 1 -36 7 -27 6 10 8 8 6 -8 0 -12 -5
-19 -9 -17 -4 3 -8 0 -8 -5 0 -6 8 -11 17 -11 15 0 14 -2 -3 -16 -10 -8 -13
-13 -6 -9 13 7 18 -40 5 -48 -5 -2 -3 -2 4 -1 17 4 26 -13 12 -22 -8 -5 -4
-13 12 -26 13 -11 18 -16 10 -12 -10 5 -12 3 -5 -7 5 -8 9 -18 10 -24 0 -5 2
-16 2 -23 1 -7 7 -10 14 -6 8 5 9 2 5 -9 -4 -12 -1 -17 9 -17 10 0 14 -6 11
-14 -4 -10 -1 -13 7 -10 7 3 19 -3 27 -13 13 -16 12 -17 -3 -5 -12 10 -18 10
-24 1 -4 -8 -3 -9 4 -5 7 4 12 2 12 -3 0 -6 6 -11 14 -11 7 0 19 -7 26 -15 7
-8 17 -12 24 -8 6 3 8 3 4 -2 -9 -10 10 -47 21 -40 5 3 11 -2 14 -10 4 -9 1
-12 -9 -8 -7 3 -14 1 -14 -5 0 -6 11 -9 25 -7 14 1 28 -2 32 -8 3 -6 1 -7 -5
-3 -7 4 -12 2 -12 -3 0 -6 5 -11 10 -11 6 0 10 -7 10 -15 0 -9 6 -12 16 -8 10
4 17 -2 21 -17 4 -16 8 -18 14 -8 7 10 9 11 9 0 0 -7 5 -10 10 -7 9 5 14 -6
12 -26 -1 -3 5 -6 13 -6 8 0 12 5 9 11 -3 6 1 3 9 -6 8 -10 23 -18 35 -18 11
0 22 -7 26 -15 3 -9 12 -12 22 -8 11 4 15 3 10 -5 -3 -6 -2 -14 4 -17 6 -4 9
-1 8 6 -2 8 9 13 29 14 22 0 29 -3 23 -10 -6 -8 6 -11 41 -9 27 1 52 -3 55 -8
8 -13 25 2 17 15 -3 7 4 3 18 -8 15 -13 19 -14 11 -3 -9 11 -10 18 -2 23 5 3
10 1 10 -6 0 -8 5 -7 17 2 15 12 16 12 8 -1 -8 -13 -7 -13 8 -1 9 7 17 10 17
5 0 -4 7 1 16 12 14 18 15 18 9 -6 l-7 -25 17 23 c13 18 20 21 31 11 12 -10
13 -9 8 6 -5 12 -4 16 3 12 6 -4 13 -3 15 3 1 5 14 11 27 13 14 2 27 10 29 17
3 8 0 10 -8 5 -9 -5 -11 -4 -6 4 6 9 11 9 24 -1 12 -10 14 -10 8 0 -4 7 -2 12
6 12 8 0 23 7 34 15 12 10 14 14 4 12 -8 -2 -12 -2 -7 0 4 3 4 10 1 15 -4 7
-2 8 4 4 7 -4 20 -2 29 3 10 6 15 11 11 11 -4 0 6 14 22 31 19 21 33 29 42 23
10 -6 10 -4 -1 9 -12 15 -12 17 4 11 13 -5 16 -4 11 4 -4 7 -3 12 3 12 6 0 7
8 4 18 -6 14 -4 15 9 4 13 -10 18 -10 24 -1 4 8 3 9 -4 5 -8 -5 -11 0 -8 16 2
14 9 22 19 20 11 -2 15 5 13 22 -2 16 1 23 9 20 7 -3 15 2 19 11 3 9 2 14 -2
11 -5 -3 -9 1 -9 9 0 8 5 11 10 8 6 -4 8 5 4 23 -3 16 -4 23 -1 17 10 -23 21
-14 16 12 -3 16 0 25 8 25 10 0 10 3 0 15 -10 12 -10 15 0 15 9 0 9 4 -1 17
-8 9 -9 14 -3 10 7 -4 14 0 17 8 4 10 1 12 -11 9 -15 -5 -15 -4 -1 8 16 13 23
51 7 42 -5 -3 -5 -10 -2 -16 4 -7 2 -8 -4 -4 -8 4 -8 15 -2 31 7 18 6 25 -3
25 -8 0 -9 2 -1 8 11 7 11 23 -1 61 -4 14 -2 21 7 21 8 0 6 4 -5 11 -9 5 -23
7 -30 3 -8 -5 -7 -2 2 9 8 11 9 17 3 17 -7 0 -9 7 -5 17 4 10 2 14 -4 10 -6
-4 -13 0 -16 8 -4 10 -1 12 11 9 15 -5 15 -4 -1 6 -9 6 -15 16 -11 22 4 6 -2
8 -17 4 -13 -3 -18 -3 -11 0 6 3 12 10 12 15 0 6 -6 7 -12 3 -8 -5 -8 -2 1 10
8 9 10 16 5 15 -26 -5 -36 1 -25 15 10 12 8 14 -13 12 -14 -2 -25 0 -24 3 2
19 -3 31 -12 26 -6 -4 -7 1 -3 11 4 12 3 15 -5 10 -7 -4 -12 -2 -12 4 0 6 -6
8 -12 4 -10 -6 -10 -4 0 7 17 18 15 34 -3 19 -11 -9 -15 -9 -15 -1 0 7 -4 10
-8 7 -10 -6 -35 23 -40 45 -2 8 -8 16 -13 17 -5 2 -6 8 -3 14 4 5 -4 4 -17 -2
-13 -7 -21 -9 -17 -5 4 4 1 13 -6 21 -23 22 -87 55 -97 49 -5 -4 -9 1 -9 9 0
19 -11 20 -29 4 -8 -7 -11 -8 -8 -3 8 16 -30 38 -39 23 -4 -6 -3 -8 4 -4 6 3
13 2 16 -3 11 -17 -27 -5 -39 13 -8 11 -15 13 -20 7 -3 -6 -1 -11 4 -11 6 0
11 -5 11 -12 0 -7 -6 -6 -17 4 -22 18 -56 32 -48 19 3 -5 1 -12 -5 -16 -5 -3
-10 0 -10 7 0 9 -3 9 -10 -2 -8 -12 -10 -12 -10 -1 0 11 -3 11 -15 1 -13 -11
-14 -10 -9 4 3 9 4 16 1 16 -3 0 -7 -7 -11 -15z m68 -1166 c3 -3 -4 -5 -14 -6
-11 -1 -20 2 -20 7 0 8 25 8 34 -1z m40 -5 c3 -8 2 -12 -4 -9 -6 3 -10 10 -10
16 0 14 7 11 14 -7z"/>
<path d="M480 3039 c0 -5 -5 -7 -12 -3 -7 4 -8 3 -4 -5 6 -9 11 -9 22 0 17 14
18 19 4 19 -5 0 -10 -5 -10 -11z"/>
<path d="M2195 2980 c-3 -5 -1 -10 4 -10 6 0 11 5 11 10 0 6 -2 10 -4 10 -3 0
-8 -4 -11 -10z"/>
<path d="M2936 2982 c-2 -4 -1 -14 3 -21 6 -9 11 -10 15 -2 4 6 2 11 -4 11 -6
0 -8 5 -5 10 3 6 4 10 1 10 -3 0 -7 -4 -10 -8z"/>
<path d="M1905 2861 c-3 -5 -2 -12 3 -15 5 -3 9 1 9 9 0 17 -3 19 -12 6z"/>
<path d="M5045 2580 c3 -5 8 -10 11 -10 2 0 4 5 4 10 0 6 -5 10 -11 10 -5 0
-7 -4 -4 -10z"/>
<path d="M70 2560 c0 -5 5 -10 11 -10 5 0 7 5 4 10 -3 6 -8 10 -11 10 -2 0 -4
-4 -4 -10z"/>
<path d="M1719 2413 c-1 -5 -1 -11 0 -15 0 -5 -3 -8 -9 -8 -5 0 -10 6 -10 13
0 8 -4 7 -10 -3 -9 -13 -11 -13 -20 0 -7 11 -10 12 -10 2 0 -8 -6 -12 -12 -9
-7 2 -18 -3 -24 -11 -9 -12 -13 -12 -19 -2 -6 9 -4 11 5 5 9 -5 11 -4 6 4 -4
6 -12 9 -17 5 -5 -3 -7 -10 -4 -15 4 -5 1 -9 -5 -9 -6 0 -9 -4 -5 -9 3 -5 0
-13 -6 -17 -7 -4 -9 -3 -5 4 3 6 2 13 -4 17 -5 3 -10 0 -10 -8 0 -17 -55 -67
-74 -67 -8 0 -12 -9 -11 -25 2 -14 -1 -23 -6 -19 -5 3 -6 11 -3 17 4 7 -2 3
-13 -8 -11 -11 -16 -21 -12 -23 19 -8 8 -19 -15 -17 -18 2 -23 -1 -19 -11 6
-17 -13 -19 -21 -1 -3 6 -3 1 0 -12 5 -17 3 -21 -7 -16 -9 6 -10 3 -5 -11 4
-10 4 -15 0 -12 -12 13 -46 -13 -40 -29 5 -13 4 -14 -9 -3 -12 10 -15 10 -15
-4 0 -10 -4 -15 -9 -12 -5 3 -11 -1 -14 -9 -4 -10 -1 -12 11 -9 9 2 7 -1 -5
-7 -13 -7 -23 -17 -23 -23 0 -6 -5 -4 -10 4 -8 12 -10 10 -10 -9 0 -17 -4 -22
-16 -17 -10 4 -13 2 -8 -6 5 -7 2 -9 -8 -6 -8 4 -15 0 -15 -8 0 -7 5 -10 10
-7 6 4 7 1 3 -6 -5 -7 -14 -10 -22 -7 -8 3 -14 -1 -14 -8 0 -8 -7 -17 -16 -20
-9 -3 -12 -11 -8 -18 5 -8 2 -9 -9 -5 -11 4 -17 1 -17 -8 0 -8 -6 -14 -12 -13
-7 2 -13 -6 -12 -18 0 -16 -4 -20 -19 -16 -14 3 -18 1 -13 -6 4 -7 2 -12 -4
-12 -6 0 -8 -5 -4 -12 5 -7 2 -9 -9 -5 -16 6 -67 -43 -67 -64 0 -6 -5 -7 -12
-3 -7 5 -9 2 -5 -9 3 -9 -1 -18 -10 -21 -9 -4 -13 -14 -10 -26 3 -11 1 -18 -4
-14 -5 3 -9 -2 -9 -11 0 -10 5 -13 13 -9 7 5 6 0 -3 -11 -14 -17 -13 -18 4
-11 19 7 19 6 2 -13 -17 -19 -17 -19 2 -14 17 4 20 1 15 -17 -4 -17 -2 -21 12
-18 10 2 20 -4 22 -12 4 -13 3 -13 -7 0 -10 13 -11 13 -7 0 2 -8 11 -14 20
-14 10 1 14 -5 12 -18 -3 -15 0 -18 12 -14 14 6 14 4 2 -11 -8 -9 -9 -14 -2
-10 6 4 22 2 35 -3 l23 -11 -25 5 c-24 5 -24 5 -5 -10 11 -8 27 -21 37 -28 9
-8 20 -11 24 -8 5 4 2 -2 -6 -12 -8 -11 -10 -17 -3 -13 7 4 19 -2 28 -15 l17
-23 -7 25 c-5 19 -4 22 4 10 6 -8 11 -22 11 -31 0 -9 8 -23 17 -30 10 -8 14
-9 10 -2 -4 6 -3 15 3 18 6 4 9 1 8 -7 -2 -7 4 -12 12 -10 12 3 12 1 3 -9 -10
-10 -8 -16 9 -31 12 -10 25 -18 30 -18 5 0 6 -4 3 -10 -3 -5 -1 -10 5 -10 17
0 41 -27 43 -48 1 -13 7 -18 19 -14 13 3 18 -1 18 -14 0 -16 2 -17 10 -4 8 12
10 10 10 -8 0 -13 4 -20 10 -17 6 3 10 0 10 -7 0 -9 3 -9 10 2 5 8 10 10 10 5
0 -6 -6 -17 -12 -24 -7 -7 -8 -12 -3 -11 24 5 35 -1 35 -20 0 -11 5 -20 11
-20 5 0 7 5 3 12 -5 7 -3 8 5 4 7 -5 10 -10 7 -13 -8 -8 23 -35 32 -29 5 3 9
-1 9 -9 0 -8 -4 -12 -8 -9 -4 2 -10 0 -13 -5 -4 -5 5 -8 19 -6 20 2 23 -1 15
-11 -9 -9 -5 -12 14 -10 23 3 24 1 14 -18 -6 -12 -7 -18 -3 -14 4 4 14 0 22
-10 8 -9 12 -12 9 -5 -4 6 -1 15 5 19 7 4 9 3 5 -4 -3 -6 -2 -13 4 -17 5 -3
10 -11 10 -16 0 -6 -4 -7 -10 -4 -5 3 -10 1 -10 -4 0 -15 13 -14 29 2 9 7 11
7 8 1 -4 -7 0 -15 9 -18 8 -3 13 -10 9 -15 -3 -5 0 -13 6 -17 7 -4 9 -3 6 3
-4 6 2 13 12 16 15 4 18 1 13 -12 -5 -13 -3 -14 10 -3 12 10 17 10 20 1 3 -8
9 -9 19 -4 8 5 20 10 27 11 30 5 44 15 39 29 -4 9 -1 12 7 9 8 -3 17 0 21 5 3
6 12 8 18 4 8 -5 8 -2 0 9 -11 12 -10 18 5 30 9 9 25 14 35 13 14 -3 16 0 7 9
-13 16 13 42 31 30 8 -4 9 -3 5 4 -6 10 4 16 25 14 3 -1 5 10 3 24 -2 21 0 23
12 13 12 -10 13 -9 8 5 -4 11 -2 16 7 14 8 -2 13 3 11 10 -2 11 43 37 59 34 3
0 6 5 6 13 0 8 -5 11 -10 8 -6 -4 -7 -1 -3 6 5 7 15 10 23 6 13 -4 14 -3 4 9
-10 12 -8 14 13 12 27 -3 36 8 14 17 -10 4 -10 6 0 6 7 1 10 6 6 13 -4 7 -3 8
5 4 15 -10 43 13 34 27 -4 7 0 8 12 3 15 -5 16 -4 6 8 -10 12 -8 14 14 12 22
-3 23 -1 13 12 -8 10 -8 13 -2 9 7 -4 18 1 25 10 12 14 12 16 0 8 -10 -5 -12
-4 -7 4 6 9 11 9 21 1 11 -9 12 -6 7 12 -5 20 -4 21 11 10 14 -12 16 -11 12 6
-2 12 3 23 11 26 10 4 13 1 9 -7 -4 -6 0 -3 9 7 8 10 13 22 11 27 -3 4 0 11 6
15 8 4 9 3 5 -4 -4 -7 -2 -12 3 -12 10 0 16 21 12 43 -1 4 7 3 17 -2 14 -7 19
-6 20 5 1 7 3 20 4 28 1 8 7 12 14 9 6 -2 15 1 20 8 4 8 3 10 -4 5 -7 -4 -12
-2 -12 3 0 6 5 11 11 11 8 0 7 6 -2 17 -8 9 -9 14 -3 10 13 -8 27 19 18 34 -3
5 1 9 8 9 9 0 9 3 -2 10 -8 5 -10 10 -5 10 6 0 10 26 10 59 0 46 -3 57 -12 49
-10 -8 -13 -5 -13 11 0 12 5 19 10 16 16 -10 11 1 -7 16 -9 8 -14 9 -10 3 3
-6 0 -11 -8 -11 -10 0 -11 5 -4 19 7 12 6 18 -1 18 -7 0 -9 9 -5 23 5 19 5 20
-5 4 -6 -9 -16 -15 -21 -12 -5 4 -7 11 -4 16 4 5 -5 14 -19 21 -14 6 -26 18
-26 25 0 8 -4 11 -10 8 -5 -3 -10 1 -10 9 0 8 -5 18 -12 22 -7 5 -8 3 -3 -6 5
-9 4 -11 -4 -6 -9 6 -9 11 0 22 10 12 9 13 -5 8 -11 -4 -16 -1 -16 10 0 9 -5
16 -11 16 -5 0 -8 -4 -5 -8 3 -5 -2 -9 -10 -9 -10 0 -11 4 -4 11 16 16 12 26
-9 26 -11 0 -23 5 -27 12 -4 6 -3 8 4 4 6 -3 14 -1 18 5 4 7 3 10 -2 6 -5 -3
-20 1 -34 10 -18 10 -20 13 -5 9 19 -6 19 -5 3 7 -10 8 -14 18 -10 23 4 4 0 3
-10 -4 -18 -14 -25 -7 -23 23 2 14 -4 21 -18 22 -18 2 -18 1 -2 -11 14 -10 15
-15 5 -21 -8 -5 -11 -4 -7 2 4 6 1 13 -7 16 -9 4 -12 14 -9 26 3 13 1 21 -6
21 -7 0 -9 -4 -6 -10 3 -6 -1 -7 -10 -4 -11 5 -13 10 -5 19 9 11 6 12 -12 8
-18 -4 -20 -3 -8 6 11 8 12 11 2 11 -8 0 -10 5 -6 13 5 7 0 6 -11 -3 -17 -14
-18 -13 -13 8 6 20 4 22 -10 10 -10 -8 -13 -8 -9 -1 4 6 1 18 -7 26 -8 8 -12
18 -8 21 3 4 -1 4 -10 1 -9 -4 -19 -1 -24 6 -5 8 -3 10 7 5 8 -4 6 -1 -3 7
-10 8 -18 19 -18 25 0 7 -7 9 -17 5 -12 -5 -14 -3 -8 7 6 10 4 12 -8 7 -9 -3
-19 -2 -23 4 -3 6 -12 8 -20 5 -8 -3 -11 0 -8 8 3 7 -3 19 -13 27 -16 12 -17
12 -6 -1 10 -13 9 -16 -7 -16 -10 0 -17 4 -14 7 2 4 0 10 -6 14 -5 3 -10 1
-10 -6 0 -8 -4 -8 -15 1 -8 7 -12 16 -9 21 3 5 3 9 0 9 -3 0 -7 -3 -7 -7z
m-673 -585 c4 -7 3 -8 -4 -4 -7 4 -12 2 -12 -3 0 -6 -5 -11 -11 -11 -8 0 -8 5
1 15 15 18 17 18 26 3z"/>
<path d="M1820 2375 c0 -2 6 -8 13 -14 10 -8 14 -7 14 2 0 8 -6 14 -14 14 -7
0 -13 -1 -13 -2z"/>
<path d="M1522 2335 c-7 -8 -9 -15 -4 -15 5 0 15 7 22 15 16 19 -1 19 -18 0z"/>
<path d="M3461 2326 c-11 -12 -17 -14 -27 -5 -11 9 -14 9 -14 0 0 -14 -32 -11
-42 4 -5 6 -8 3 -8 -6 0 -9 -8 -23 -17 -30 -9 -8 -14 -9 -10 -2 4 7 1 10 -9 9
-8 -1 -19 -8 -24 -15 -5 -8 -13 -10 -21 -5 -11 6 -11 3 1 -12 8 -10 10 -15 5
-11 -5 4 -15 -3 -23 -15 -8 -14 -11 -16 -8 -5 3 11 2 15 -4 12 -6 -3 -10 -13
-10 -21 0 -8 -4 -12 -10 -9 -6 3 -7 -1 -4 -10 4 -10 2 -15 -7 -13 -8 2 -13 -4
-13 -14 1 -10 -3 -15 -8 -12 -5 3 -16 -2 -24 -12 -9 -11 -12 -13 -8 -5 5 10 3
12 -5 7 -9 -6 -9 -11 -1 -21 8 -9 4 -12 -15 -10 -15 2 -23 -1 -19 -7 7 -11
-34 -58 -52 -58 -6 0 -15 -11 -18 -25 -4 -14 -11 -23 -16 -20 -6 3 -10 1 -10
-5 0 -6 -5 -8 -12 -4 -8 5 -9 2 -4 -11 5 -15 4 -16 -8 -6 -13 11 -15 9 -11 -8
3 -14 -4 -23 -26 -33 -18 -8 -29 -20 -29 -33 0 -15 -3 -17 -9 -7 -6 10 -10 8
-14 -8 -3 -12 -10 -19 -16 -16 -5 4 -13 1 -17 -5 -5 -8 -3 -9 7 -4 12 8 12 6
0 -9 -8 -9 -20 -15 -26 -12 -20 7 -35 -15 -24 -35 8 -15 6 -17 -8 -12 -13 5
-15 3 -10 -11 5 -13 3 -17 -7 -13 -19 8 -42 -43 -24 -54 11 -7 10 -9 -1 -9 -7
0 -11 -6 -7 -15 3 -8 0 -14 -6 -12 -6 1 -13 -4 -16 -12 -2 -8 0 -11 5 -8 5 3
9 -3 9 -13 0 -10 -4 -16 -8 -14 -4 3 -8 0 -8 -5 0 -6 5 -11 10 -11 6 0 10 -5
10 -11 0 -5 -4 -8 -8 -5 -10 6 -9 -25 2 -42 4 -6 4 -12 0 -12 -4 0 1 -9 11
-20 10 -11 22 -17 28 -13 5 3 7 1 3 -5 -3 -5 -3 -12 1 -15 5 -2 3 -2 -4 -1 -7
2 -15 -1 -18 -7 -4 -5 -3 -9 2 -8 20 3 34 -2 28 -11 -3 -5 -2 -10 4 -10 5 0
12 6 15 13 3 6 3 1 0 -12 -4 -16 -3 -21 5 -17 6 4 11 0 11 -8 0 -9 6 -16 14
-16 8 0 18 -9 21 -20 6 -19 18 -25 40 -20 5 1 1 -9 -10 -22 -11 -13 -13 -17
-5 -10 19 17 33 15 26 -4 -3 -8 -2 -13 3 -9 5 3 11 0 13 -5 2 -6 13 -12 24
-12 15 -2 20 -8 18 -25 -1 -13 2 -21 7 -17 5 3 9 0 9 -5 0 -6 7 -11 16 -11 8
0 13 -4 10 -8 -3 -5 4 -15 15 -22 19 -14 28 -37 9 -25 -6 3 -7 -1 -3 -10 4
-12 8 -13 13 -5 6 10 12 10 26 0 18 -11 18 -11 -1 -6 -19 6 -19 6 -1 -9 10 -8
24 -11 30 -8 6 4 4 -2 -4 -12 -9 -11 -10 -16 -2 -11 8 4 12 1 12 -10 0 -13 3
-14 15 -4 12 10 14 8 10 -9 -3 -15 1 -21 15 -21 17 0 37 -33 32 -53 -1 -4 7
-3 18 3 16 9 19 8 13 -6 -5 -13 -3 -15 7 -9 10 6 12 4 7 -7 -8 -22 3 -30 20
-16 11 8 12 7 8 -5 -4 -8 -1 -18 4 -22 6 -3 8 -11 5 -17 -4 -7 -2 -8 5 -4 9 6
9 11 0 22 -10 12 -9 13 5 8 9 -3 16 -13 16 -21 0 -8 4 -12 9 -9 11 7 23 -22
15 -35 -3 -5 0 -8 8 -7 7 2 12 -3 11 -9 -2 -7 2 -13 7 -13 6 0 10 5 10 12 0 6
9 1 20 -12 16 -18 20 -20 20 -7 0 10 5 17 11 17 5 0 7 -6 3 -12 -4 -7 -4 -10
1 -6 4 4 15 2 23 -5 9 -6 13 -7 10 -2 -4 6 -3 17 3 25 5 9 9 10 9 3 0 -12 13
-11 42 2 10 4 15 11 12 16 -3 5 0 9 6 9 6 0 8 5 4 12 -5 8 -2 9 9 5 9 -3 16
-3 16 1 -3 19 2 33 10 27 5 -3 12 -1 16 5 3 5 0 10 -7 10 -8 0 -6 5 5 11 9 6
14 15 11 21 -4 7 -2 8 5 4 6 -4 9 -11 6 -16 -3 -5 -1 -12 5 -15 6 -4 10 -3 9
2 -3 18 2 34 9 29 4 -2 14 4 21 16 9 15 10 18 0 13 -8 -6 -10 -4 -5 4 5 7 15
10 23 7 9 -4 11 -2 7 6 -5 8 -2 9 11 4 15 -5 16 -4 6 8 -8 10 -9 16 -1 21 5 3
10 1 10 -5 0 -6 5 -8 10 -5 8 5 7 11 -1 21 -10 12 -9 13 5 8 9 -3 16 -1 16 6
0 6 5 8 10 5 6 -3 10 1 10 10 0 9 5 13 11 9 7 -4 10 -1 7 7 -5 15 32 49 52 49
10 0 10 4 0 15 -11 13 -10 15 1 10 20 -7 40 8 42 32 1 14 6 19 16 15 9 -3 12
-1 7 6 -5 8 -2 10 8 6 11 -4 16 0 16 11 0 9 5 13 11 9 7 -4 10 -1 7 7 -3 8 5
22 18 31 25 21 38 23 28 6 -4 -7 -3 -8 4 -4 9 5 9 13 1 27 -9 18 -8 19 8 10
16 -8 19 -6 19 11 -1 12 6 23 14 26 11 4 13 2 5 -9 -5 -8 -3 -7 6 3 9 9 20 14
25 10 5 -4 2 2 -6 12 -11 14 -11 18 -2 12 15 -9 52 20 52 41 0 7 5 13 11 13 5
0 7 5 3 12 -4 7 -3 8 4 4 7 -4 12 -1 12 8 0 9 5 16 11 16 5 0 7 -6 3 -12 -4
-8 -3 -10 2 -5 5 5 9 12 10 15 0 4 4 15 9 26 5 11 4 26 -3 36 -8 13 -7 21 6
34 16 16 16 17 -2 10 -13 -5 -17 -4 -12 4 4 7 1 12 -6 13 -7 0 -4 4 7 9 11 5
14 9 7 9 -8 1 -10 6 -6 14 5 7 2 7 -10 -2 -9 -8 -16 -10 -15 -5 1 5 1 15 0 23
-1 11 -4 11 -18 0 -15 -13 -15 -12 -4 10 8 15 9 21 2 17 -6 -4 -11 -2 -11 4 0
6 -5 8 -12 4 -8 -5 -9 -2 -4 11 5 15 4 16 -9 5 -13 -11 -14 -10 -9 4 3 9 1 16
-5 16 -6 0 -11 5 -11 11 0 5 4 8 8 5 5 -3 9 1 9 9 0 8 -4 12 -8 9 -4 -2 -10 0
-14 6 -4 6 -10 8 -15 5 -5 -3 -17 6 -28 20 -11 13 -22 22 -25 18 -3 -3 4 -14
16 -24 12 -10 19 -18 15 -19 -5 0 -19 10 -33 22 -20 18 -23 24 -12 37 9 12 9
13 0 7 -7 -4 -13 -2 -13 3 0 6 -7 11 -15 11 -9 0 -15 7 -13 16 2 10 -3 19 -10
21 -8 3 -10 -2 -6 -14 5 -14 4 -15 -4 -3 -8 10 -8 18 -1 27 8 9 6 11 -10 8
-12 -2 -21 1 -21 6 0 6 -6 7 -12 3 -8 -5 -7 0 2 11 8 10 10 16 3 12 -12 -7
-63 46 -63 66 0 8 -4 7 -9 -2 -7 -11 -10 -9 -16 8 -10 34 -47 64 -58 49 -6 -9
-7 -7 -3 6 9 26 -12 50 -30 35 -17 -14 -19 2 -2 19 9 9 7 12 -10 12 -12 0 -22
6 -22 14 0 7 -7 19 -15 26 -8 7 -12 17 -8 23 3 6 1 7 -6 3 -6 -4 -8 -13 -4
-19 4 -7 0 -6 -10 2 -9 7 -14 18 -10 25 4 6 -1 4 -11 -3 -16 -13 -17 -13 -14
4 1 10 -4 20 -12 22 -13 4 -13 3 0 -6 12 -9 11 -11 -8 -11 -13 0 -20 4 -17 10
3 6 -1 10 -10 10 -9 0 -13 5 -10 11 4 6 -2 5 -14 -3 -18 -11 -22 -10 -34 6
-12 16 -14 16 -26 2z m604 -485 c3 -5 2 -12 -3 -15 -5 -3 -9 1 -9 9 0 17 3 19
12 6z m-1259 -287 c1 -9 -1 -13 -4 -9 -4 4 -7 10 -7 13 0 4 -4 14 -9 22 -7 12
-6 13 4 3 8 -7 15 -20 16 -29z m1304 -49 c0 -2 -6 -8 -13 -14 -10 -8 -14 -7
-14 2 0 8 6 14 14 14 7 0 13 -1 13 -2z m-587 -576 c-8 -8 -13 -7 -18 2 -5 8
-4 10 3 5 7 -4 12 -2 12 5 0 7 3 9 7 6 4 -4 2 -12 -4 -18z"/>
<path d="M2140 2181 c0 -5 7 -12 16 -15 14 -5 15 -4 4 9 -14 17 -20 19 -20 6z"/>
<path d="M580 2000 c0 -5 5 -10 11 -10 5 0 7 5 4 10 -3 6 -8 10 -11 10 -2 0
-4 -4 -4 -10z"/>
<path d="M2280 1931 c0 -6 4 -13 10 -16 6 -3 7 1 4 9 -7 18 -14 21 -14 7z"/>
<path d="M2564 1498 c-3 -4 -14 -8 -25 -8 -11 0 -17 -4 -14 -10 3 -5 2 -10 -4
-10 -5 0 -12 6 -14 13 -4 7 -9 2 -13 -12 -7 -23 -8 -23 -22 -5 -13 16 -14 17
-9 2 4 -12 1 -18 -8 -18 -8 0 -15 -4 -15 -10 0 -5 -5 -10 -11 -10 -5 0 -7 5
-3 12 4 7 3 8 -5 4 -8 -6 -9 -12 -2 -20 8 -9 5 -12 -12 -12 -15 1 -22 -5 -22
-19 0 -12 -6 -20 -17 -19 -9 1 -14 -4 -12 -11 3 -7 0 -16 -7 -21 -8 -5 -10 -3
-4 5 5 9 2 9 -14 0 -14 -10 -17 -15 -8 -21 11 -7 2 -12 -17 -9 -5 1 -6 -5 -3
-13 4 -11 0 -14 -15 -11 -11 3 -18 2 -15 -1 3 -4 -7 -17 -24 -31 -16 -14 -27
-29 -24 -33 3 -5 1 -11 -5 -15 -6 -4 -7 -11 -4 -17 4 -7 2 -8 -4 -4 -6 4 -9
14 -6 24 5 15 4 15 -6 -1 -6 -10 -16 -14 -23 -10 -9 5 -8 2 0 -9 15 -18 7 -29
-15 -21 -9 4 -13 2 -9 -4 9 -14 -19 -37 -33 -28 -5 3 -10 2 -10 -4 0 -6 -10
-20 -22 -31 -19 -18 -20 -22 -8 -30 13 -8 13 -10 -2 -10 -9 0 -19 6 -22 13 -3
6 -4 0 -2 -16 3 -23 1 -25 -12 -15 -9 7 -13 8 -9 2 3 -6 -5 -17 -18 -24 -14
-7 -25 -19 -25 -27 0 -7 -9 -13 -21 -13 -11 0 -17 -5 -14 -10 4 -6 11 -7 17
-4 7 4 8 2 4 -5 -4 -6 -12 -9 -17 -6 -5 4 -9 1 -9 -4 0 -6 -5 -10 -12 -8 -6 1
-15 -9 -19 -23 -4 -14 -7 -19 -8 -12 -1 6 -6 12 -12 12 -5 0 -8 -4 -4 -9 3 -6
-3 -15 -12 -21 -16 -10 -16 -11 2 -5 19 6 19 5 2 -12 -15 -16 -19 -16 -28 -3
-7 11 -8 8 -5 -12 3 -20 1 -25 -10 -21 -8 3 -14 0 -14 -6 0 -6 6 -11 13 -11 8
0 7 -4 -3 -10 -13 -8 -13 -13 -2 -31 8 -12 9 -18 2 -14 -13 8 -9 -40 5 -52 4
-4 5 -3 1 4 -3 6 -1 15 5 19 7 4 9 3 5 -4 -3 -6 2 -18 11 -28 17 -17 17 -18 1
-11 -10 3 -18 2 -18 -3 0 -9 22 -15 43 -11 4 1 2 -9 -4 -21 -11 -21 -11 -22 4
-9 17 13 22 7 19 -21 -1 -3 14 -13 33 -22 35 -17 46 -28 23 -22 -7 1 -10 1 -5
-1 4 -3 5 -9 2 -14 -4 -5 1 -6 9 -3 10 4 18 -1 22 -11 6 -13 9 -14 16 -3 7 9
8 7 5 -10 -3 -12 -2 -20 3 -17 4 3 11 -2 14 -11 4 -9 13 -14 22 -10 8 3 12 2
9 -4 -6 -10 25 -51 34 -46 3 2 13 -3 21 -12 13 -14 12 -15 -3 -9 -10 4 -17 2
-17 -4 0 -7 11 -9 24 -7 16 3 23 1 20 -7 -3 -7 4 -15 15 -18 12 -3 25 -17 31
-31 5 -14 16 -26 25 -26 8 0 15 -7 15 -16 0 -9 5 -12 13 -8 9 6 9 5 0 -8 -16
-18 -5 -32 14 -17 10 9 13 8 13 -5 0 -10 5 -14 10 -11 6 3 10 -4 10 -17 0 -18
2 -20 10 -8 8 12 10 11 10 -7 0 -29 16 -38 29 -16 9 15 10 13 7 -10 -3 -18 0
-30 10 -34 7 -3 12 -9 9 -14 -3 -4 4 -6 16 -4 18 4 19 2 7 -12 -12 -15 -10
-16 17 -10 17 3 24 4 18 1 -21 -9 -14 -27 8 -21 16 4 18 3 8 -9 -9 -11 -9 -14
0 -14 7 0 10 -4 7 -9 -4 -5 5 -8 18 -7 20 3 23 -1 21 -20 -1 -15 2 -21 9 -17
17 11 46 11 39 0 -4 -6 2 -8 14 -5 11 3 29 1 39 -5 17 -9 17 -9 6 6 -12 14
-11 16 7 12 15 -3 21 1 21 13 0 14 2 15 10 2 8 -12 10 -12 16 3 4 10 12 16 19
14 6 -3 12 1 12 8 0 7 -7 11 -16 8 -11 -3 -10 0 3 7 15 10 20 9 27 -1 5 -8 9
-9 9 -4 0 6 -6 17 -12 24 -11 10 -9 11 7 5 11 -4 17 -4 13 0 -10 11 25 43 41
38 9 -4 12 -1 7 6 -4 7 -1 12 7 12 18 0 30 27 20 43 -4 7 2 5 12 -3 15 -12 17
-12 10 -1 -6 11 -4 13 8 8 12 -4 15 -1 12 14 -2 11 0 17 5 14 15 -9 23 17 9
27 -12 8 -11 9 1 5 22 -6 52 12 46 29 -3 7 -2 13 2 13 19 -3 33 2 28 10 -3 5
4 11 15 14 15 4 20 11 15 22 -3 9 -2 13 4 10 5 -3 18 3 29 14 11 11 22 17 25
14 3 -4 6 -1 6 5 0 5 -6 13 -12 15 -12 5 16 11 34 8 4 0 5 6 2 14 -4 10 0 15
15 15 15 0 19 4 14 17 -4 11 -3 14 5 9 7 -4 12 -1 12 10 0 14 3 14 15 4 13
-11 14 -10 10 2 -4 9 1 18 10 22 10 3 15 12 12 20 -6 15 9 16 31 2 11 -7 12
-4 3 12 -8 15 -7 23 4 32 8 7 15 9 15 4 0 -4 6 1 14 11 8 11 12 23 10 26 -2 4
5 5 16 2 14 -4 20 0 20 11 0 11 5 14 12 10 8 -5 9 -2 5 10 -5 11 -3 15 5 10 8
-5 9 -2 4 11 -5 14 -4 16 7 7 17 -14 28 -6 20 16 -5 11 -3 13 8 7 11 -7 11 -5
-1 10 -12 15 -12 17 -1 10 11 -6 13 -4 8 8 -4 10 -1 17 6 17 8 0 6 4 -3 10 -8
5 -10 10 -5 10 6 0 10 13 10 29 0 21 -4 28 -16 26 -12 -2 -15 3 -13 21 2 21
-1 24 -19 18 -17 -5 -19 -4 -10 6 14 15 -6 40 -31 40 -9 0 -15 3 -15 8 3 20
-3 32 -17 32 -11 0 -14 5 -10 17 4 10 4 14 0 11 -3 -4 -14 1 -23 10 -10 11
-12 12 -6 2 9 -13 8 -13 -8 -1 -10 8 -15 21 -12 29 4 12 2 12 -8 4 -17 -14
-28 -6 -20 16 5 11 2 14 -10 9 -12 -4 -21 2 -32 22 -8 16 -11 31 -8 35 4 3 -1
6 -11 6 -11 0 -15 4 -10 13 5 7 0 6 -11 -3 -17 -14 -17 -13 -11 8 4 12 4 22
-1 21 -21 -4 -32 3 -38 21 -3 11 -13 20 -21 20 -8 0 -13 4 -9 9 3 5 -4 12 -15
16 -11 3 -20 11 -20 16 0 6 -7 17 -15 25 -8 9 -15 12 -15 8 0 -18 -29 33 -30
51 0 17 -2 17 -10 5 -8 -13 -10 -12 -10 4 0 12 -5 16 -14 13 -18 -7 -40 18
-33 36 3 8 -1 14 -9 14 -7 0 -10 -5 -7 -10 3 -6 1 -7 -5 -3 -7 4 -12 14 -12
22 0 8 -7 14 -15 14 -7 0 -19 8 -25 18 -11 16 -11 16 -6 0 3 -10 1 -18 -4 -18
-6 0 -10 5 -10 10 0 6 -4 9 -9 8 -4 -2 -17 6 -27 17 -11 12 -15 15 -10 8 14
-22 1 -24 -20 -5 -20 20 -51 25 -60 10z m31 -8 c-3 -5 -12 -10 -18 -10 -7 0
-6 4 3 10 19 12 23 12 15 0z m-325 -229 c0 -5 -7 -12 -16 -15 -14 -5 -15 -4
-4 9 14 17 20 19 20 6z m-140 -135 c0 -3 -4 -8 -10 -11 -5 -3 -10 -1 -10 4 0
6 5 11 10 11 6 0 10 -2 10 -4z m-100 -105 c0 -5 -7 -12 -16 -15 -14 -5 -15 -4
-4 9 14 17 20 19 20 6z m-85 -81 c3 -5 1 -10 -4 -10 -6 0 -11 5 -11 10 0 6 2
10 4 10 3 0 8 -4 11 -10z m16 -305 c11 6 11 5 2 -5 -12 -14 -33 -6 -33 13 0 8
3 7 9 -2 5 -8 14 -10 22 -6z m814 -415 c-3 -5 -12 -10 -18 -10 -7 0 -6 4 3 10
19 12 23 12 15 0z"/>
<path d="M2670 1479 c0 -5 5 -7 10 -4 6 3 10 8 10 11 0 2 -4 4 -10 4 -5 0 -10
-5 -10 -11z"/>
<path d="M3809 1203 c-13 -16 -12 -17 4 -4 9 7 17 15 17 17 0 8 -8 3 -21 -13z"/>
<path d="M1876 1072 c-3 -5 1 -9 9 -9 8 0 12 4 9 9 -3 4 -7 8 -9 8 -2 0 -6 -4
-9 -8z"/>
<path d="M1835 1029 c-4 -6 -5 -12 -2 -15 2 -3 7 2 10 11 7 17 1 20 -8 4z"/>
<path d="M3205 640 c-3 -6 1 -7 9 -4 18 7 21 14 7 14 -6 0 -13 -4 -16 -10z"/>
<path d="M3166 612 c-3 -5 1 -9 9 -9 8 0 12 4 9 9 -3 4 -7 8 -9 8 -2 0 -6 -4
-9 -8z"/>
<path d="M2150 396 c0 -2 7 -7 16 -10 8 -3 12 -2 9 4 -6 10 -25 14 -25 6z"/>
</g>
</svg>
